<svg xmlns="http://www.w3.org/2000/svg" width="256" height="256"><path fill-opacity=".235" d="M0 128.004v128.004l128.25-.254 128.25-.254.254-127.75L257.008 0H0v128.004m.485.496c0 70.4.119 99.053.265 63.672.146-35.38.146-92.98 0-128C.604 29.153.485 58.1.485 128.5" fill="#1976D2" fill-rule="evenodd"/><path fill-opacity=".282" d="M0 128.004v128.004l128.25-.254 128.25-.254.254-127.75L257.008 0H0v128.004m.485.496c0 70.4.119 99.053.265 63.672.146-35.38.146-92.98 0-128C.604 29.153.485 58.1.485 128.5M112.81 95.75c-.209 2.529-.799 3.75-1.81 3.75-.825 0-2.132.9-2.903 2-.772 1.1-2.555 3.249-3.962 4.775l-2.558 2.776 4.593 4.593 4.593 4.593 2.119-2.119c1.165-1.165 2.588-2.118 3.163-2.118 1.358 0 5.955 4.597 5.955 5.955 0 1.786-1.833 1.146-2.471-.863-.766-2.414-3.21-3.382-5.365-2.124-.915.534-1.162.985-.549 1.002.613.016 2.349 1 3.856 2.186 1.508 1.186 4.056 2.26 5.664 2.386 1.607.126 4.7 1.406 6.872 2.844 2.173 1.438 5.339 2.614 7.037 2.614 1.698 0 3.958.466 5.022 1.035 1.488.797 1.934.709 1.934-.377 0-2.638-2.801-4.07-5.53-2.826-1.358.619-2.47.775-2.47.347 0-1.418 2.371-3.179 4.279-3.179 1.589 0 1.773-.488 1.187-3.156l-.694-3.157 7.701.651c4.235.358 8.051.868 8.48 1.133.428.265.562 1.617.296 3.005-.457 2.391-.826 2.524-6.988 2.524-5.659 0-6.344.194-5.265 1.495.682.822 1.008 2.38.725 3.463-.759 2.902.942 3.705 9.41 4.441 8.867.77 8.869.769 8.869-8.449 0-4.822-.271-5.783-1.5-5.312-2.223.854-1.832-1.656.674-4.324l2.175-2.314-2.425-2.597c-2.913-3.121-9.04-6.403-11.954-6.403-1.16 0-5.52 1.42-9.689 3.156-9.004 3.748-9.358 3.537-11.296-6.733-1.442-7.645-2.446-8.423-10.859-8.423h-6.005l-.311 3.75m-2.593 8.672c-1.019 2.237-.686 2.745 4.335 6.618 5.316 4.101 5.496 4.158 7.975 2.534 1.395-.914 2.311-2.027 2.036-2.473-.881-1.424-11.209-9.101-12.245-9.101-.548 0-1.494 1.09-2.101 2.422M96.63 112.25c-.704 2.627-.834 7.287-.185 6.638.909-.908 2.314-8.888 1.565-8.888-.427 0-1.048 1.013-1.38 2.25m5.989 3.299c-.931 2.427-.744 6.451.299 6.451.505 0 1.572.251 2.371.557 2.516.966 2.667-2.228.261-5.49-1.873-2.538-2.429-2.826-2.931-1.518m-21.608 2.938c-.679.818-.969 2.181-.644 3.028.339.882-.255 2.265-1.388 3.235-3.625 3.103-2.493 5.103 4.72 8.339 3.684 1.653 7.846 2.855 9.25 2.67 2.444-.322 2.394-.415-1.199-2.233-2.062-1.043-3.82-2.601-3.906-3.461-.342-3.447.387-6.655 1.891-8.321 1.85-2.048 1.818-2.091-2.634-3.596-4.333-1.464-4.607-1.448-6.09.339m28.574 2.695c-2.37 3.384-1.96 4.634 2.071 6.319 3.332 1.392 3.818 1.38 5.5-.142 2.307-2.088 2.333-3.62.094-5.586-3.243-2.847-5.939-3.055-7.665-.591M92 121.718c-2.192.85-2.967 2.389-2.985 5.923-.013 2.705.506 3.349 3.735 4.629 5.237 2.076 9.549 2.86 10.878 1.978.621-.411 1.314-2.723 1.54-5.137.385-4.106.216-4.469-2.628-5.636-4.13-1.694-8.726-2.46-10.54-1.757m26.468 6.549c-1.623 1.783-1.827 2.687-1.013 4.483.561 1.238 1.389 2.25 1.841 2.25.452 0 .589-.377.305-.837-.809-1.309 2.457-5.355 3.881-4.808.701.269 1.779-.016 2.396-.633.829-.829 1.122-.538 1.122 1.116 0 1.838-.485 2.186-2.714 1.95-3.502-.371-4.262 2.439-1.076 3.973l2.29 1.104-2.339.067-2.339.068 2.589 3.077c3.104 3.688 3.218 5.043.626 7.389-2.354 2.131-5.037 1.377-5.037-1.416 0-2.406-3.972-3.724-6.672-2.214-1.553.869-.88 1.461 4.612 4.058 3.537 1.673 8.922 3.558 11.968 4.191 7.016 1.456 18.684.733 22.592-1.4 4.481-2.446 9.206-6.95 7.789-7.422-.77-.257-.998-1.47-.625-3.333l.586-2.93h-6.296c-4.523 0-6.826.479-8.175 1.7-4.463 4.039-14.521-.037-13.484-5.465.311-1.626-.41-2.995-2.506-4.759-3.644-3.066-7.647-3.147-10.321-.209M107 129.915c0 3.063-2.688 6.085-5.412 6.085-2.554 0-1.441 2.156 2.489 4.822 2.604 1.767 4.141 2.155 6.423 1.622 1.65-.385 4.087-.793 5.416-.906 3.332-.283 4.504-3.734 1.997-5.88-1.052-.901-1.913-2.263-1.913-3.026 0-1.856-2.139-3.525-5.903-4.604-2.932-.841-3.097-.741-3.097 1.887m27.2.285c-1.909 1.909-1.395 5.55 1.023 7.243 2.917 2.044 6.044 1.971 8.727-.202 2.691-2.178 1.928-4.736-2.022-6.778-3.434-1.776-6.123-1.868-7.728-.263m3.8 5.8c0 .55 1.012.993 2.25.985 1.819-.013 1.963-.201.75-.985-1.939-1.253-3-1.253-3 0m26.732 3c-1.902 4.842-1.397 5.139 1.279.75 2.159-3.541 2.449-4.75 1.141-4.75-.467 0-1.556 1.8-2.42 4m-80.211 3.127c-3.878 8.33-3.288 10.026 1.567 4.511 2.248-2.554 5.14-4.908 6.427-5.231 2.561-.643 4.247-3.407 2.079-3.407-.739 0-2.745-.28-4.458-.623-2.976-.595-3.225-.384-5.615 4.75m36.044-2.233c-.994 1.609.511 6.106 2.043 6.106.766 0 1.378-.787 1.36-1.75-.043-2.37-2.604-5.648-3.403-4.356m-30.108 3.969c-3.206 1.956-5.706 5.172-6.864 8.835-.614 1.942-.194 2.324 3.606 3.279 2.366.595 5.979 1.703 8.031 2.464 2.051.76 4.602 1.154 5.668.876 1.833-.48 6.104-8.532 6.101-11.502-.002-1.246-9.659-5.819-12.272-5.811-.675.002-2.596.838-4.27 1.859m15.848 8.902a2799.762 2799.762 0 0 0-2.834 7.424c-.508 1.344.145 1.83 3.195 2.382 2.109.381 4.621 1.099 5.584 1.596 1.111.574 1.75.533 1.75-.113 0-.559-1.237-1.289-2.75-1.622-1.513-.334-3.875-.982-5.25-1.441-3.459-1.153-.234-1.205 3.758-.06 3.065.878 3.213.802 2.669-1.365-.39-1.555-.068-2.49.999-2.899 2.045-.785 2.109-5.667.074-5.667-1.823 0-1.961 2.135-.25 3.859 1.002 1.01.903 1.127-.5.593-.963-.366-1.75-1.518-1.75-2.559 0-2.914.316-3.415 1.97-3.124.842.148.405-.398-.97-1.214s-2.725-1.493-3-1.505c-.275-.011-1.488 2.56-2.695 5.715m10.267-1.437c.608 1.583 2.497 2.147 10.428 3.113 4.336.527 4.281.48-1.5-1.307-3.3-1.02-6.793-2.193-7.761-2.606-1.338-.57-1.619-.378-1.167.8m27.48 3.922c.128 3.059 5.591 14.708 6.489 13.837.528-.512 2.533-1.332 4.457-1.822 1.925-.49 3.63-1.569 3.789-2.398.16-.828-1.671-3.613-4.068-6.187-3.426-3.679-5.039-4.68-7.539-4.68-1.905 0-3.159.501-3.128 1.25M133 156c0 1.253 1.061 1.253 3 0 1.213-.784 1.069-.972-.75-.985-1.238-.008-2.25.435-2.25.985m3.5.647c-1.341 1.061-1.599 1.733-.784 2.04.839.315.414 1.67-1.368 4.363-2.317 3.502-2.51 4.495-1.871 9.612.894 7.152 2.182 10.618 3.752 10.095.669-.223 1.47-1.497 1.781-2.831.455-1.95 1.477-2.603 5.208-3.331 5.174-1.008 6.581-3.365 4.802-8.044l-.984-2.587-2.018 2.018c-2.425 2.425-3.854 2.522-6.795.461-2.449-1.715-3.012-6.254-1.023-8.243.66-.66 2.508-1.2 4.107-1.2 2.24 0 2.768-.363 2.3-1.582-.334-.87-.607-1.77-.607-2 0-1.074-4.718-.182-6.5 1.229m-20.5 1.4c0 .694 8.551 1.953 13 1.914 1.889-.017 2.134-.23 1-.874-1.867-1.06-14-1.962-14-1.04m-3 .894c0 .518.45 1.219 1 1.559.55.34 1-.084 1-.941s-.45-1.559-1-1.559-1 .423-1 .941m19.032 2.809c.03 2.634.094 2.668 1.5.809 1.871-2.474 1.861-3.559-.032-3.559-.977 0-1.489.958-1.468 2.75m8.781-.067c.721.289 1.584.253 1.916-.079.332-.332-.258-.568-1.312-.525-1.165.048-1.402.285-.604.604m-41.904 5.998c-2.459 5.702-2.89 9.43-1.159 10.043.688.244 1.25-.29 1.25-1.186 0-1.336.675-1.507 3.75-.952 5.016.905 5.421 1.226 4.271 3.375-1.166 2.178 1.237 3.684 2.761 1.73 2.136-2.741 4.167-11.395 2.42-10.316-.439.271-1.447.091-2.241-.399-1.123-.694-1.177-1.16-.245-2.092.932-.932 1.543-.914 2.742.081 1.273 1.057 1.542 1.018 1.542-.224 0-.964-1.705-1.921-4.75-2.668-2.612-.64-5.54-1.399-6.506-1.687-1.345-.402-2.242.604-3.835 4.295M138 164c0 .55.477 1 1.059 1s.781-.45.441-1-.816-1-1.059-1-.441.45-.441 1m4.923-.25c-.042.412-.233 1.579-.424 2.592-.192 1.013-.071 1.563.268 1.224.784-.784 1.386-4.566.727-4.566-.272 0-.528.338-.571.75m-4.19 3.374c.679.684 1.486.991 1.793.683.308-.308-.247-.867-1.233-1.243-1.425-.542-1.54-.428-.56.56m15.59 1.572c-4.594.894-6.418 6.902-2.886 9.504 2.204 1.625 2.399 1.602 4.349-.5 1.122-1.21 2.133-2.875 2.246-3.7.388-2.839-.033-6-.782-5.864-.412.075-1.73.327-2.927.56M108.5 173c-.816 1.32.38 3.192 1.569 2.457 1.215-.75 1.207-3.457-.01-3.457-.518 0-1.219.45-1.559 1m-8.5 4.364c0 1.712 4.098 2.938 5.416 1.62 1.184-1.184.79-1.533-2.666-2.362-2.006-.482-2.75-.281-2.75.742m41.25.342c-1.238.238-2.25.828-2.25 1.312 0 .483 1.463.385 3.25-.218 5.208-1.758 4.795-2.21-1-1.094m1.25 2.62c-2.207.864-3.08 1.924-3.301 4.01-.43 4.041 1.439 5.887 5.21 5.146 6.509-1.278 8.591-2.588 8.591-5.403 0-4.927-3.92-6.328-10.5-3.753m-29.947 10.245c-.369 1.964-.917 4.214-1.219 5-.996 2.596 2.201 1.504 5.47-1.869 3.328-3.434 4.723-8.214 1.654-5.667-1.169.97-1.824.999-2.7.123-1.859-1.859-2.493-1.382-3.205 2.413m13.84 1.73c-1.641 3.443-1.655 3.866-.165 5.355 2.597 2.598 4.852 1.027 4.117-2.868-1.138-6.034-2.001-6.577-3.952-2.487" fill="#1976D2" fill-rule="evenodd"/><path fill-opacity=".436" d="M166.699 68.287c-2.93 9.293-3.082 9.359-11.585 4.995-6.598-3.387-8.297-3.819-16.263-4.132-6.914-.273-9.44.006-11.338 1.25-1.344.88-3.022 1.6-3.731 1.6-.709 0-3.504 1.575-6.211 3.5-2.708 1.925-5.631 3.503-6.497 3.506-1.654.007-5.569 5.694-5.239 7.611.105.614-.463 1.659-1.262 2.323-.8.663-1.214 1.832-.92 2.598.293.765-.472 2.804-1.701 4.53-1.757 2.467-1.954 3.313-.923 3.95 1.505.93.203 3.355-4.498 8.381-2.188 2.339-2.641 3.645-2.345 6.75.376 3.952-.479 4.688-3.186 2.741-1.266-.91-1.227-.991.25-.516 1.429.46 1.737-.027 1.68-2.655-.057-2.618-.216-2.846-.851-1.219-.764 1.959-1.718 2-46.18 2.022L.5 115.545l-.257 70.231-.257 70.232 128.257-.254L256.5 255.5l.257-70.007.256-70.008-38.515.073c-38.431.072-38.514.067-38.017-1.993.274-1.136-.173-.602-.994 1.185s-1.693 3.25-1.938 3.25c-.637 0 1.556-6.315 2.587-7.45 1.351-1.486 1.02-4.382-.823-7.195-1.359-2.074-1.699-5.158-1.75-15.881-.059-12.571-.735-16.433-2.401-13.736-.436.705-1.681-1.216-3.096-4.779-1.302-3.277-2.667-5.959-3.034-5.959s-1.417 2.379-2.333 5.287M126 85c0 .55.675 1 1.5 1s1.5-.45 1.5-1-.675-1-1.5-1-1.5.45-1.5 1m1.543 4.931c-.317.512-.118 1.213.441 1.559.559.345 1.016-.074 1.016-.931 0-1.757-.6-2.015-1.457-.628m-11.293 1.768c-4.22.413-4.25.444-4.25 4.402 0 2.847-.391 3.903-1.366 3.693-.752-.162-3.153 1.963-5.337 4.721l-3.971 5.014 4.946 4.415c4.314 3.851 5.068 4.201 5.887 2.736 1.089-1.946 5.874-2.247 7.641-.48.66.66 1.171 2.123 1.137 3.25-.06 1.921-.121 1.907-.976-.222-1.06-2.638-3.245-3.717-5.655-2.792-1.405.539-1.168.97 1.391 2.526 1.697 1.032 3.385 2.362 3.753 2.957.367.595 1.789 1.081 3.159 1.081 2.864 0 7.455 2.168 9.301 4.392.827.996 2.359 1.366 4.427 1.069l3.163-.454-3.25 1.025c-2.837.895-3.25 1.462-3.25 4.461 0 3.887 2.019 5.507 6.863 5.507 2.995 0 6.137-2.172 6.137-4.243 0-.605-.787-2.035-1.75-3.178-1.719-2.042-1.713-2.048.295-.36 1.506 1.267 4.272 1.794 10.5 2l8.455.281.5-7.215c.449-6.473.309-7.244-1.357-7.5-1.669-.256-1.587-.575.813-3.154l2.669-2.869-2.179-2.319c-1.198-1.276-4.493-3.531-7.32-5.012l-5.142-2.692-7.992 3.229a4676.879 4676.879 0 0 0-9.064 3.669c-1.395.573-2.918-2.865-4.371-9.861-.642-3.092-1.748-6.104-2.457-6.693-1.664-1.381-5.993-1.909-11.35-1.384m47.741 1.79c.68.819 1.683 1.213 2.229.875.604-.373.461-.951-.363-1.474-2.157-1.366-3.216-1.027-1.866.599M131 96c0 1.867.267 2.133 1.2 1.2.933-.933.933-1.467 0-2.4-.933-.933-1.2-.667-1.2 1.2m28.543 1.93c-.662 1.071 1.917 3.277 2.799 2.395.362-.362.658-.985.658-1.385 0-1.121-2.87-1.959-3.457-1.01M145 101.5c1.359 1.637 4 2.038 4 .607 0-.921-2.367-2.107-4.204-2.107-.63 0-.55.592.204 1.5m-13 .941c0 .793.45 1.719 1 2.059.55.34 1-.309 1-1.441 0-1.132-.45-2.059-1-2.059s-1 .648-1 1.441m-21.082 1.712c-1.048 1.959-.673 2.613 3.708 6.475 2.681 2.362 5.099 4.298 5.374 4.302.275.003 1.4-.688 2.5-1.538 1.95-1.505 1.887-1.645-2.474-5.553-6.483-5.809-7.707-6.304-9.108-3.686m27.832-1.044c-1.717.972-2.474 3.906-1 3.876 1.73-.036 3.422-1.835 3.098-3.296-.263-1.188-.775-1.329-2.098-.58M155 103c0 .55.477 1 1.059 1s.781-.45.441-1-.816-1-1.059-1-.441.45-.441 1m-57.75 7.141c-.687.693-1.206 3.307-1.151 5.809l.099 4.55 1.418-4.5c1.688-5.355 1.537-7.774-.366-5.859m-14.437 4.542c.721.289 1.584.253 1.916-.079.332-.332-.258-.568-1.312-.525-1.165.048-1.402.285-.604.604m19.745.567c-1.51 4.969-1.34 5.812 1.465 7.262 2.647 1.369 2.892 1.332 3.48-.521.398-1.254-.159-3.103-1.503-4.992-2.367-3.323-2.885-3.586-3.442-1.749M.474 186c0 38.775.124 54.638.276 35.25.151-19.387.151-51.112 0-70.5C.598 131.363.474 147.225.474 186m78.164-67.893c-1.263 1.803-1.197 5.893.095 5.893.275 0 .27-.879-.011-1.954-.281-1.074.049-2.718.733-3.654 1.06-1.45 1.174-1.198.773 1.704-.26 1.872-1.131 4.158-1.937 5.08-2.415 2.759-1.103 5.17 4.258 7.824l5.049 2.5-2.946 5.728c-2.581 5.019-2.835 6.243-2.049 9.901.877 4.082 1.032 4.211 7.078 5.862 3.4.929 7.309 2.428 8.687 3.331l2.507 1.642-2.34 5.768c-3.729 9.193-3.743 9.129 2.465 11.417 9.19 3.388 8.589 3.49 10.633-1.813 1.026-2.66 1.866-7.192 1.866-10.071.001-4.751.186-5.184 2.001-4.684 1.152.317 1.533.204.899-.265-1.648-1.222-2.276-6.102-1.008-7.836.928-1.269 2.01-1.352 6.498-.501 9.001 1.707 11.287 1.086 4.111-1.117-3.575-1.097-7.4-2.077-8.5-2.178-1.1-.101-3.078-1.157-4.396-2.347-1.317-1.189-2.916-1.962-3.554-1.718-.637.244-3.734-.695-6.882-2.087-3.149-1.393-6.442-2.532-7.319-2.532-1.282 0-1.357-.285-.385-1.456.664-.801.888-1.974.497-2.607-1.078-1.745 3.382-.18 7.593 2.663 3.826 2.584 6.383 2.945 10.303 1.454 1.937-.736 2.771-.57 3.767.75 1.051 1.394 1.046 1.489-.032.536-.954-.844-2.135-.873-4.335-.105l-3.023 1.054 3.883 2.37c6.382 3.897 16.086 6.471 24.622 6.531 6.378.045 8.675-.403 13.056-2.546 6.217-3.042 11.198-7.644 8.272-7.644-1.186 0-1.578-.501-1.174-1.5l1.179-2.908c.953-2.348-11.39-2.669-14.457-.376-6.165 4.611-15.616-.138-13.155-6.61.812-2.137.564-2.835-1.618-4.551-1.417-1.115-2.974-1.782-3.46-1.482-.485.3-.882.068-.882-.514 0-.582-1.35-1.059-3-1.059-1.846 0-3 .517-3 1.345 0 .74-.823 2.09-1.829 3-2.595 2.349-3.576 2.06-1.171-.345 2.873-2.873 2.516-5.682-.95-7.474-1.623-.839-3.632-1.526-4.465-1.526-1.921 0-3.912 3.64-3.291 6.016.31 1.185-.178 1.982-1.41 2.304-2.077.543-2.631-.874-.634-1.62 1.924-.718-7.329-4.653-11-4.678-1.787-.012-3.25-.414-3.25-.892 0-.479-2.138-1.423-4.75-2.098-2.612-.675-5.3-1.39-5.973-1.588-.672-.198-1.86.55-2.639 1.663M142 120.384c0 2.2.51 2.438 6.633 3.093 6.957.745 8.318.138 8.352-3.727.013-1.512-1.003-1.75-7.485-1.75-7.236 0-7.5.084-7.5 2.384m31.15 2.366c.136 3.401.191 3.471.59.753.242-1.648.962-3.329 1.6-3.734.753-.479.546-.744-.59-.754-1.385-.012-1.719.768-1.6 3.735m-35.709 1.704c-1.789 1.341-1.655 1.41 1.716.885 3.267-.51 3.824-.264 5.21 2.295 1.08 1.994 1.565 2.333 1.593 1.116.047-2.034-3.358-5.75-5.269-5.75-.72 0-2.182.654-3.25 1.454M170.232 129c0 1.925.206 2.713.457 1.75.252-.963.252-2.537 0-3.5-.251-.963-.457-.175-.457 1.75M129 127.378c0 .207.787.995 1.75 1.75 1.586 1.243 1.621 1.208.378-.378-1.307-1.666-2.128-2.195-2.128-1.372m-5.5 2.569c-2.533.483-3 1.036-3 3.549 0 2.192.527 3.07 2 3.33 1.957.346 1.959.322.088-1.092-2.489-1.88-1.429-5.187 1.423-4.441 1.093.285 2.258.082 2.588-.453.855-1.384.303-1.543-3.099-.893M96 135c.825.533 2.4.945 3.5.914l2-.055-2-.859c-1.1-.473-2.675-.884-3.5-.914-1.333-.049-1.333.052 0 .914m51.75-.338c.688.278 1.813.278 2.5 0 .688-.277.125-.504-1.25-.504s-1.937.227-1.25.504m6 1.044c1.238.238 3.262.238 4.5 0 1.238-.239.225-.434-2.25-.434s-3.488.195-2.25.434m11.224 1.861c-.536 1.412-1.441 3.437-2.01 4.5-.569 1.063-.681 1.93-.249 1.926 1.036-.009 5.285-6.283 5.285-7.805 0-2.16-2.032-1.234-3.026 1.379m-45.629 1.976c-.326.849-.369 1.767-.096 2.04.274.273.737-.422 1.03-1.543.624-2.383-.069-2.751-.934-.497m-32.421 6.207L84.5 148.5l2.75-2.424c1.513-1.334 2.75-2.571 2.75-2.75 0-.785-.81-.146-3.076 2.424m33.091-.059c-.024 1.886 1.81 2.519 3.727 1.288 1.615-1.038 1.602-1.081-.162-.521-1.087.345-2.274.052-2.735-.674-.58-.914-.819-.941-.83-.093m25.485 8.22c-1.1.431-4.394.738-7.32.682-5.016-.095-5.294.028-4.884 2.173.391 2.045.121 2.226-2.681 1.796-8.543-1.311-14.615-1.626-14.615-.759 0 1.222 4.939 2.197 11.125 2.197 5.413 0 5.217-.365 4.896 9.14-.18 5.3 1.495 12.443 3.158 13.471.618.382 1.668-.049 2.333-.958 1.804-2.468 2.08-2.062 1.651 2.434-.214 2.247.078 4.554.649 5.125 1.51 1.51 9.977-.001 12.144-2.168 2.324-2.324 1.567-6.888-1.338-8.062-1.386-.56-1.583-.877-.568-.919.853-.034 2.071.458 2.708 1.095 2.733 2.733 7.318-5.501 5.403-9.703-.685-1.505-.74-2.455-.14-2.455 2.551 0 .551-4.714-3.878-9.143-5.074-5.074-5.394-5.22-8.643-3.946m-8.52 7.613c-.696.838-1.071 1.718-.835 1.955.237.236.98-.449 1.651-1.524 1.452-2.325.968-2.58-.816-.431m8.449 3.476c0 1.295.338 1.633.985.986.648-.648.648-1.324 0-1.972-.647-.647-.985-.309-.985.986m-4.791.5c.317.825.753 1.5.969 1.5.216 0 .393-.675.393-1.5s-.436-1.5-.969-1.5c-.532 0-.709.675-.393 1.5M145.5 178c-.34.55-.168 1 .382 1s1.278-.45 1.618-1c.34-.55.168-1-.382-1s-1.278.45-1.618 1m-33.421 13.065c-1.542 7.194-.187 8.401 4.419 3.937 2.449-2.374 3.502-4.284 3.502-6.353 0-2.79-.103-2.866-1.806-1.324-1.65 1.493-1.944 1.497-3.394.046-1.45-1.45-1.686-1.13-2.721 3.694m14.042.697c-1.957 3.837-1.967 4.067-.252 5.619.984.891 2.592 1.619 3.573 1.619 1.561 0 1.698-.598 1.089-4.75-.961-6.559-2.026-7.16-4.41-2.488" fill="#1976D2" fill-rule="evenodd"/><path fill-opacity=".975" d="M168 65.471c0 .81-1.084 3.924-2.409 6.92l-2.41 5.448-8.173-4.075c-14.039-6.999-25.335-6.273-37.455 2.409-2.171 1.555-4.769 2.827-5.775 2.827-1.029 0-2.243 1.092-2.778 2.5-.523 1.375-1.412 2.5-1.975 2.5-.564 0-1.025.873-1.025 1.941s-.489 2.243-1.087 2.613c-.598.369-.839 1.621-.535 2.782.357 1.366-.221 2.932-1.637 4.44-1.578 1.679-1.854 2.536-.989 3.071 1.513.935-2.303 9.153-4.25 9.153-1.714 0-2.532 2.361-2.366 6.832.095 2.564.255 2.916.53 1.168.85-5.396 1.415-7 2.467-7 1.027 0 .501 7.185-.77 10.496-.262.683.387 1.467 1.442 1.743 1.59.416 2.097-.284 2.97-4.097.685-2.997.715-5.226.084-6.405-.77-1.438-.139-2.748 3.087-6.413 2.23-2.533 4.054-5.047 4.054-5.587 0-.544.642-.449 1.439.212 1.209 1.003 1.489.503 1.75-3.127l.311-4.322 5.961-.306c7.443-.383 10.305 1.039 11.149 5.539.437 2.329 1.391 3.697 3.006 4.311 1.709.65 2.309 1.587 2.162 3.373-.157 1.893-.507 2.223-1.492 1.406-1.513-1.257-1.793.829-.404 3.02.689 1.088 1.586.946 4.734-.749 3.181-1.713 3.386-1.982 1.134-1.484-3.196.705-3.763-1.12-1-3.218 2.375-1.803 3.012-1.716 3.717.505.402 1.267 1.235 1.732 2.505 1.4 1.554-.406 1.735-.937.99-2.897-.765-2.012-.605-2.4.991-2.4 1.047 0 2.499.594 3.226 1.319 1.551 1.549 6.084 2.916 5.263 1.588-1.001-1.621 1.273-.956 2.686.785 1.18 1.456 1.163 1.59-.128.963-.825-.401-.631-.15.43.558 1.062.708 3.536 2.714 5.498 4.458l3.568 3.172-2.248 2.393c-2.674 2.846-2.821 3.764-.603 3.764 1.423 0 1.561.894 1.024 6.645-.712 7.623-2.503 10.284-7.074 10.505-3.021.146-3.03.16-.345.566 2.944.446 3.321 1.348 1.774 4.239-.771 1.441-.565 1.932.979 2.335 1.569.411 2.428-.505 4.353-4.639 1.907-4.094 2.55-4.787 3.138-3.376.943 2.264-4.041 10.113-5.955 9.378-.729-.28-2.338.569-3.575 1.885-1.237 1.317-4.097 3.309-6.356 4.427-2.26 1.118-3.531 2.034-2.825 2.034 2.453.002 10.746-4.816 15.486-8.997 5.524-4.871 7.273-7.606 5.957-9.316-1.145-1.489-.338-9.873.879-9.121.492.304.895-.835.895-2.531 0-2.369.579-3.304 2.5-4.034 1.375-.523 2.5-1.623 2.5-2.445 0-.822.901-3.099 2.003-5.059l2.002-3.566-2.002-3.925C177.302 100.672 177 98.112 177 87.04c0-7.236-.408-13.04-.917-13.04-.504 0-1.093.531-1.31 1.181-.217.65-1.434-1.6-2.705-5-2.175-5.816-4.068-8.007-4.068-4.71m-41.527 13.573c-.325.526.336.956 1.468.956 2.415 0 2.658-.556.591-1.349-.807-.31-1.734-.133-2.059.393M126 85c0 .55.675 1 1.5 1s1.5-.45 1.5-1-.675-1-1.5-1-1.5.45-1.5 1m.565 4.895c-.305.493.183 1.178 1.084 1.524 1.947.747 2.809.131 1.892-1.352-.804-1.301-2.228-1.383-2.976-.172M163 92.465c0 .844.188 1.535.418 1.535.23 0 1.13.273 2 .607 2.299.882 1.942-1.344-.418-2.607-1.596-.854-2-.76-2 .465m-32.607 3.117c.334.87.607 1.77.607 2 0 .23.45.418 1 .418s1-.9 1-2c0-1.17-.667-2-1.607-2-1.055 0-1.398.544-1 1.582m29.053 2.505c-1.03 1.668 1.287 3.58 2.667 2.2C163.267 99.133 162.545 97 161 97c-.485 0-1.184.489-1.554 1.087m-48.489 5.994c-.628 1.173-.763 2.472-.3 2.886 9.3 8.297 8.87 8.052 11.237 6.395 2.044-1.432 2.1-1.711.665-3.297-.862-.953-3.569-3.169-6.014-4.925-4.428-3.18-4.451-3.185-5.588-1.059m2.119 11.851c-.989.626-.396.85 1.944.734 2.671-.132 3.634.351 4.659 2.334.891 1.725 1.296 1.98 1.306.821.032-3.662-4.639-5.959-7.909-3.889m29.104 4.318c.281 1.978 1.099 2.336 6.775 2.962 3.55.391 6.532.616 6.626.5.094-.117.464-1.169.823-2.338.789-2.573-1.318-3.34-9.224-3.36-4.947-.013-5.297.143-5 2.236m-33.7-.217c-1.35 2.184-2.318 6.967-1.41 6.967.511 0 .93-.93.93-2.066 0-1.136.466-2.936 1.035-4 1.063-1.986.59-2.754-.555-.901m10.599 4.55c.048 1.165.285 1.402.604.605.289-.722.253-1.585-.079-1.917-.332-.332-.568.258-.525 1.312m18.428.406c-.35.566.051.734.941.393 1.732-.665 2.049-1.382.611-1.382-.518 0-1.216.445-1.552.989m3.576-.706c.23.156 1.317.943 2.417 1.75 1.85 1.357 1.897 1.336.628-.283-.755-.963-1.843-1.75-2.417-1.75-.574 0-.857.127-.628.283m-8.624 5.784c-.363.586-.445 1.281-.183 1.543s.743-.218 1.069-1.067c.676-1.762.1-2.072-.886-.476m14.291 3.595c.688.278 1.813.278 2.5 0 .688-.277.125-.504-1.25-.504s-1.937.227-1.25.504m10.063 1.021c.721.289 1.584.253 1.916-.079.332-.332-.258-.568-1.312-.525-1.165.048-1.402.285-.604.604M132 135.878c0 1.008 2.892 3.605 3.357 3.015.171-.216-.515-1.18-1.524-2.143-1.008-.963-1.833-1.355-1.833-.872m13.437.791c-.546.866-2.78 1.917-4.965 2.337-3.708.713-3.763.772-.833.879 2.974.109 8.483-3.088 7.326-4.251-.295-.296-.982.17-1.528 1.035m-45.004 3.222c.713 1.154 4.567 3.483 4.567 2.759 0-.231-1.18-1.193-2.623-2.139-1.443-.945-2.318-1.224-1.944-.62m6.838 4.201c.974.567 1.467 1.523 1.096 2.124-.401.648-.215.808.458.392.623-.385 2.043-.214 3.154.381 1.112.595 2.021.877 2.021.628 0-.662-6.579-4.622-7.618-4.587-.485.017-.085.495.889 1.062M117 149.5c1.375.786 2.95 1.429 3.5 1.429.55 0-.125-.643-1.5-1.429s-2.95-1.429-3.5-1.429c-.55 0 .125.643 1.5 1.429m8.813 3.183c.721.289 1.584.253 1.916-.079.332-.332-.258-.568-1.312-.525-1.165.048-1.402.285-.604.604m-10.293 3.483c-.331 1.834-.77 5.416-.975 7.961-.501 6.228-3.581 16.949-5.027 17.505-.642.246-3.308-.471-5.925-1.592-2.618-1.122-5.622-2.04-6.676-2.04-1.054 0-1.917-.403-1.917-.895 0-1.638-7.459.746-9.25 2.956-4.498 5.553-.73 10.911 10.075 14.324 4.248 1.342 9.4 2.754 11.449 3.139 3.446.646 3.726.521 3.732-1.663.003-1.298.472-4.04 1.042-6.093.922-3.32 1.244-3.603 2.913-2.56 1.447.903 2.218.888 3.369-.067 1.02-.846 1.699-.904 2.146-.181 1.131 1.83-.426 4.762-4.466 8.412-3.624 3.274-3.755 3.574-1.827 4.186 1.142.363 3.256.793 4.697.956 1.441.163 3.52.57 4.62.904 1.1.335 2.663.176 3.474-.352 1.257-.819 1.159-1.3-.662-3.263-2.054-2.216-2.072-2.433-.473-5.73 2.51-5.178 3.861-4.889 4.671 1 .534 3.884.373 5.387-.649 6.034-2.375 1.505 2.372 1.035 12.041-1.191 14.415-3.319 19.918-8.61 15.363-14.771-1.989-2.691-2.016-2.977-.441-4.733.922-1.027.452-.8-1.043.505-1.496 1.306-2.466 2.784-2.156 3.285.31.502.292 1.994-.041 3.318-.689 2.745-6.174 4.879-11.102 4.319-2.652-.301-3.016-.755-3.293-4.092-.276-3.34-.519-3.641-2.208-2.737-2.702 1.446-4.161-1.757-4.77-10.472-.27-3.871-.99-7.41-1.601-7.864-.797-.593-.757-.969.14-1.333.688-.279 1.249-1.033 1.247-1.674-.001-.733-2.326-1.276-6.25-1.461-7.241-.34-9.747-.942-9.747-2.342 0-.643 2.862-.752 8-.304 6.721.587 8 .461 8-.786 0-1.093-1.654-1.639-6.262-2.07-3.445-.321-7.017-.874-7.939-1.228-1.307-.501-1.81.093-2.279 2.69m13.48-2.783c0 .888 4.046 1.352 4.558.523.308-.498-.592-.906-1.999-.906s-2.559.173-2.559.383m26 4.995c0 .207.787.995 1.75 1.75 1.586 1.243 1.621 1.208.378-.378-1.307-1.666-2.128-2.195-2.128-1.372M115.5 162c-.34.55-.141 1 .441 1s1.059-.45 1.059-1-.198-1-.441-1-.719.45-1.059 1m2.313 8.683c.721.289 1.584.253 1.916-.079.332-.332-.258-.568-1.312-.525-1.165.048-1.402.285-.604.604m41.266 1.9c.048 1.165.285 1.402.604.605.289-.722.253-1.585-.079-1.917-.332-.332-.568.258-.525 1.312" fill="#1976D2" fill-rule="evenodd"/></svg>